# xmcd
#
# Track frame offsets:
#	150
#	12483
#	28867
#	41290
#	59085
#	71000
#	89598
#	104158
#	118590
#	135913
#	155490
#	169495
#	186848
#	201508
#
# Disc length: 2859 seconds
#
# Revision: 1
# Processed by: cddbd v1.4PL0 Copyright (c) Steve Scherf et al.
# Submitted via: audiograbber 1.82.02
#
DISCID=d30b290e
DTITLE=Funny Hill - Bordertown
DYEAR=1900
DGENRE=Country
TTITLE0=bordertown
TTITLE1=don't fall in love with a rambler
TTITLE2=I'm walking
TTITLE3=till honkey gets tonkey
TTITLE4=this land is your land
TTITLE5=flying on the wings of America
TTITLE6=speak of the devil
TTITLE7=c'est la vie
TTITLE8=red lips blue eyes
TTITLE9=all the good times
TTITLE10=we remember Willie
TTITLE11=T and N for Tennessee
TTITLE12=down on the bayou
TTITLE13=only here for al little while
EXTD=
EXTT0=
EXTT1=
EXTT2=
EXTT3=
EXTT4=
EXTT5=
EXTT6=
EXTT7=
EXTT8=
EXTT9=
EXTT10=
EXTT11=
EXTT12=
EXTT13=
PLAYORDER=
